<?xml version="1.0" encoding="utf-8"?>
<!-- Generator: Adobe Illustrator 17.0.0, SVG Export Plug-In . SVG Version: 6.00 Build 0)  -->
<!DOCTYPE svg PUBLIC "-//W3C//DTD SVG 1.1//EN" "http://www.w3.org/Graphics/SVG/1.1/DTD/svg11.dtd">
<svg version="1.1" id="Layer_1" xmlns="http://www.w3.org/2000/svg" xmlns:xlink="http://www.w3.org/1999/xlink" x="0px" y="0px"
	 width="482px" height="115.355px" viewBox="0 0 482 115.355" enable-background="new 0 0 482 115.355" xml:space="preserve">
<g>
	<g id="XMLID_4_">
		<linearGradient id="XMLID_5_" gradientUnits="userSpaceOnUse" x1="8.736788e-008" y1="5.5131" x2="482.037" y2="5.5131">
			<stop  offset="0" style="stop-color:#B93537"/>
			<stop  offset="0.4944" style="stop-color:#4F3770"/>
			<stop  offset="1" style="stop-color:#215389"/>
		</linearGradient>
		<polygon id="XMLID_1_" fill="url(#XMLID_5_)" points="482.037,8.995 0,9.026 0,2 482.037,2.031 		"/>
		<path id="XMLID_291_" fill="#1D2747" d="M0,76.311V21.787h8.601v46.922H37.86v7.602H0z"/>
		<path id="XMLID_289_" fill="#1D2747" d="M45.309,76.311V21.864h8.601v54.447H45.309z"/>
		<path id="XMLID_287_" fill="#1D2747" d="M103.826,69.553c-4.454,4.762-9.651,7.142-15.589,7.142c-3.532,0-6.848-0.78-9.945-2.342
			c-3.098-1.561-5.786-3.635-8.063-6.22c-2.279-2.585-4.07-5.555-5.376-8.908c-1.305-3.353-1.958-6.822-1.958-10.406
			c0-3.686,0.653-7.192,1.958-10.521c1.305-3.327,3.097-6.246,5.376-8.755c2.278-2.508,4.978-4.492,8.102-5.952
			c3.122-1.459,6.528-2.189,10.214-2.189c5.119,0,9.419,1.088,12.901,3.264c3.481,2.177,6.117,5.056,7.91,8.64l-6.604,4.761
			c-1.486-2.968-3.494-5.195-6.029-6.681c-2.534-1.484-5.337-2.227-8.409-2.227c-2.509,0-4.788,0.551-6.835,1.651
			c-2.048,1.102-3.801,2.561-5.26,4.378c-1.459,1.817-2.586,3.93-3.379,6.335c-0.795,2.407-1.19,4.915-1.19,7.526
			c0,2.765,0.434,5.35,1.305,7.756c0.87,2.407,2.086,4.505,3.648,6.297c1.561,1.793,3.391,3.213,5.491,4.262
			c2.098,1.05,4.377,1.574,6.835,1.574c5.529,0,10.494-2.688,14.898-8.063v-5.76H92.383v-6.374h18.661v27.569h-7.219V69.553z"/>
		<path id="XMLID_285_" fill="#1D2747" d="M165.798,21.787v54.524h-8.678V52.275h-27.492v24.036h-8.601V21.787h8.601v22.808h27.492
			V21.787H165.798z"/>
		<path id="XMLID_281_" fill="#1D2747" d="M270.315,21.787v54.524h-8.678V52.275h-27.492v24.036h-8.601V21.787h8.601v22.808h27.492
			V21.787H270.315z"/>
		<path id="XMLID_278_" fill="#1D2747" d="M305.026,76.696c-3.84,0-7.334-0.78-10.482-2.342c-3.149-1.561-5.863-3.635-8.141-6.22
			c-2.278-2.585-4.032-5.541-5.261-8.87c-1.228-3.327-1.843-6.732-1.843-10.213c0-3.635,0.653-7.116,1.958-10.444
			c1.306-3.327,3.111-6.271,5.414-8.831c2.304-2.559,5.042-4.595,8.217-6.105c3.174-1.51,6.63-2.265,10.368-2.265
			c3.84,0,7.334,0.806,10.482,2.419c3.149,1.613,5.849,3.725,8.102,6.336c2.252,2.611,3.993,5.568,5.222,8.869
			c1.229,3.303,1.843,6.67,1.843,10.098c0,3.636-0.653,7.117-1.959,10.444c-1.306,3.328-3.111,6.259-5.414,8.793
			c-2.304,2.535-5.03,4.557-8.178,6.067C312.206,75.94,308.762,76.696,305.026,76.696z M288.054,49.049
			c0,2.56,0.396,5.043,1.19,7.449c0.793,2.407,1.932,4.531,3.417,6.374c1.484,1.843,3.276,3.316,5.375,4.416
			c2.099,1.101,4.455,1.651,7.066,1.651c2.661,0,5.055-0.576,7.18-1.728c2.124-1.152,3.917-2.674,5.376-4.569
			c1.459-1.893,2.572-4.018,3.341-6.373c0.767-2.354,1.152-4.762,1.152-7.219c0-2.611-0.411-5.107-1.229-7.488
			c-0.819-2.381-1.971-4.48-3.456-6.297c-1.485-1.817-3.277-3.276-5.375-4.378c-2.1-1.1-4.429-1.651-6.989-1.651
			c-2.663,0-5.056,0.576-7.18,1.728c-2.125,1.152-3.916,2.649-5.376,4.492c-1.459,1.843-2.572,3.955-3.341,6.335
			C288.439,44.172,288.054,46.592,288.054,49.049z"/>
		<path id="XMLID_276_" fill="#1D2747" d="M362.544,68.939c2.866,0,5.247-0.562,7.142-1.689c1.894-1.126,3.417-2.598,4.569-4.416
			c1.152-1.817,1.971-3.89,2.458-6.22c0.486-2.329,0.73-4.722,0.73-7.18V21.787h8.677v27.646c0,3.738-0.436,7.257-1.306,10.559
			c-0.871,3.302-2.253,6.196-4.146,8.678c-1.895,2.483-4.339,4.442-7.334,5.874c-2.995,1.434-6.593,2.151-10.79,2.151
			c-4.352,0-8.025-0.755-11.02-2.265c-2.994-1.51-5.414-3.533-7.257-6.067c-1.842-2.534-3.175-5.439-3.993-8.716
			c-0.819-3.276-1.228-6.681-1.228-10.214V21.787h8.6v27.646c0,2.509,0.243,4.928,0.73,7.257c0.486,2.33,1.306,4.404,2.458,6.22
			c1.152,1.818,2.688,3.277,4.608,4.377C357.361,68.389,359.728,68.939,362.544,68.939z"/>
		<path id="XMLID_274_" fill="#1D2747" d="M429.816,34.612c-0.513-0.563-1.255-1.164-2.227-1.805
			c-0.973-0.639-2.112-1.241-3.417-1.804c-1.306-0.563-2.753-1.024-4.339-1.382c-1.587-0.358-3.276-0.538-5.068-0.538
			c-3.379,0-5.939,0.666-7.679,1.997c-1.741,1.332-2.611,3.2-2.611,5.606c0,1.331,0.28,2.419,0.844,3.264
			c0.563,0.844,1.408,1.574,2.535,2.189c1.126,0.614,2.534,1.165,4.223,1.651c1.689,0.487,3.66,1.012,5.914,1.574
			c2.661,0.718,5.107,1.46,7.334,2.227c2.227,0.768,4.12,1.728,5.683,2.88c1.561,1.152,2.777,2.573,3.647,4.263
			c0.87,1.689,1.306,3.789,1.306,6.297c0,2.868-0.538,5.299-1.613,7.295c-1.075,1.997-2.523,3.623-4.339,4.877
			c-1.818,1.255-3.929,2.177-6.335,2.765c-2.407,0.588-4.967,0.883-7.68,0.883c-4.146,0-8.166-0.626-12.056-1.881
			c-3.892-1.254-7.399-3.084-10.521-5.491l3.993-7.372c0.665,0.666,1.613,1.409,2.841,2.227c1.229,0.82,2.675,1.575,4.339,2.265
			c1.663,0.691,3.494,1.281,5.491,1.766c1.996,0.488,4.07,0.73,6.22,0.73c3.276,0,5.823-0.601,7.641-1.805
			c1.817-1.202,2.726-2.957,2.726-5.26c0-1.383-0.333-2.535-0.998-3.456c-0.666-0.922-1.639-1.728-2.918-2.419
			c-1.28-0.691-2.841-1.306-4.684-1.843c-1.843-0.538-3.943-1.114-6.297-1.728c-2.714-0.716-5.082-1.471-7.104-2.265
			c-2.023-0.793-3.699-1.753-5.03-2.88c-1.331-1.125-2.342-2.444-3.033-3.955c-0.691-1.509-1.037-3.341-1.037-5.491
			c0-2.661,0.499-5.03,1.497-7.103c0.998-2.074,2.381-3.813,4.147-5.222c1.766-1.408,3.852-2.47,6.258-3.187
			c2.406-0.716,4.992-1.075,7.757-1.075c3.788,0,7.231,0.589,10.328,1.766c3.097,1.178,5.823,2.638,8.179,4.378L429.816,34.612z"/>
		<path id="XMLID_272_" fill="#1D2747" d="M482.037,68.709v7.602h-37.399V21.787h36.708v7.603h-28.107v15.513h24.344v7.142h-24.344
			v16.665H482.037z"/>
		<path id="XMLID_283_" fill="#1D2747" d="M218.095,29.355h-18.124v46.956h-8.601V29.355h-18.2v-7.608h44.925V29.355z"/>
	</g>
	
		<text id="XMLID_3_" transform="matrix(1 0 0 1 49.3551 110.9326)" fill="#1B374C" font-family="'Raleway', 'Helvetica Neue', Helvetica, Arial, sans-serif" font-weight="300" font-size="27.341" letter-spacing="4">FINANCIAL SOLUTIONS</text>
</g>
</svg>
